<?xml version="1.0" encoding="UTF-8" standalone="no"?>
<!-- Created with Inkscape (http://www.inkscape.org/) -->

<svg
   xmlns:dc="http://purl.org/dc/elements/1.1/"
   xmlns:cc="http://creativecommons.org/ns#"
   xmlns:rdf="http://www.w3.org/1999/02/22-rdf-syntax-ns#"
   xmlns:svg="http://www.w3.org/2000/svg"
   xmlns="http://www.w3.org/2000/svg"
   xmlns:sodipodi="http://sodipodi.sourceforge.net/DTD/sodipodi-0.dtd"
   xmlns:inkscape="http://www.inkscape.org/namespaces/inkscape"
   width="150.2265"
   height="380"
   viewBox="0 0 39.747429 100.54167"
   version="1.1"
   id="svg11003"
   inkscape:version="0.92.2 5c3e80d, 2017-08-06"
   sodipodi:docname="TriggerFish.svg">
  <defs
     id="defs10997" />
  <sodipodi:namedview
     id="base"
     pagecolor="#ffffff"
     bordercolor="#666666"
     borderopacity="1.0"
     inkscape:pageopacity="0.0"
     inkscape:pageshadow="2"
     inkscape:zoom="1.4"
     inkscape:cx="367.03927"
     inkscape:cy="96.224425"
     inkscape:document-units="mm"
     inkscape:current-layer="layer1"
     showgrid="false"
     fit-margin-top="0"
     fit-margin-left="0"
     fit-margin-right="0"
     fit-margin-bottom="0"
     inkscape:window-width="1918"
     inkscape:window-height="1058"
     inkscape:window-x="0"
     inkscape:window-y="1080"
     inkscape:window-maximized="0"
     units="px"
     inkscape:measure-start="-186.878,303.551"
     inkscape:measure-end="-115.157,223.749" />
  <metadata
     id="metadata11000">
    <rdf:RDF>
      <cc:Work
         rdf:about="">
        <dc:format>image/svg+xml</dc:format>
        <dc:type
           rdf:resource="http://purl.org/dc/dcmitype/StillImage" />
        <dc:title />
      </cc:Work>
    </rdf:RDF>
  </metadata>
  <g
     inkscape:label="Layer 1"
     inkscape:groupmode="layer"
     id="layer1"
     transform="translate(-35.146312,-50.389004)">
    <path
       inkscape:connector-curvature="0"
       id="path33493"
       d="M 35.219628,50.462323 H 74.821509 V 150.85843 H 35.219628 Z m 0,0"
       style="fill:#e6e6e6;fill-opacity:1;fill-rule:nonzero;stroke:none;stroke-width:0.27602378"
       inkscape:export-filename="/home/vortico/pics/tmp/LFOs.png"
       inkscape:export-xdpi="150.22649"
       inkscape:export-ydpi="150.22649" />
    <path
       inkscape:connector-curvature="0"
       id="path35949"
       d="M 90.119531,79.854093 H 116.29826"
       style="fill:none;stroke:#000000;stroke-width:0.1572617;stroke-linecap:round;stroke-linejoin:round;stroke-miterlimit:10;stroke-opacity:1"
       inkscape:export-filename="/home/vortico/pics/tmp/LFOs.png"
       inkscape:export-xdpi="150.22649"
       inkscape:export-ydpi="150.22649" />
    <path
       inkscape:connector-curvature="0"
       id="path36429"
       d="m 119.96735,76.63667 c 0,-0.293897 -0.35256,-0.534767 -0.78277,-0.534767 h -6.00998 c -0.43021,0 -0.7828,0.24087 -0.7828,0.534767 v 6.506414 c 0,0.293907 0.35259,0.534777 0.7828,0.534777 h 6.00998 c 0.43021,0 0.78277,-0.24087 0.78277,-0.534777 z m 0,0"
       style="fill:#000000;fill-opacity:1;fill-rule:nonzero;stroke:none;stroke-width:0.22814506"
       inkscape:export-filename="/home/vortico/pics/tmp/LFOs.png"
       inkscape:export-xdpi="150.22649"
       inkscape:export-ydpi="150.22649" />
    <g
       transform="matrix(0.01258366,0,0,0.0125294,83.872981,53.820768)"
       id="g139">
      <path
         inkscape:connector-curvature="0"
         d="M 742.6,862.2 C 665,905.9 582.7,927.8 496,927.8 432.1,927.8 370,914.5 309.9,887.9 249.8,861.3 197.3,822.5 152.4,771.4 115.5,728.4 87.3,681.4 67.9,630.4 48.5,579.4 38.8,527.3 38.8,474 c 0,-37.3 4.7,-74.5 14,-111.6 9.3,-37.1 22.7,-72.5 40.2,-106.2 17.5,-33.7 39.2,-65.2 65.1,-94.4 25.9,-29.3 55.2,-55 87.9,-77 C 320.2,34.9 403.1,10 494.8,10 c 44.9,0 89.3,6.3 133.3,19.1 44,12.7 84.8,30.9 122.5,54.5 37.6,23.6 71.8,52.9 102.4,87.9 30.6,35 54.3,74 71.1,117 24.7,60.5 37.1,122.7 37.1,186.6 0,45.3 -7,89 -20.8,131.3 -13.9,42.3 -34.1,82.4 -60.5,120.5 -26.4,38.1 -58.9,73.8 -97.3,107.3 6.5,5.4 30,22.1 70.5,50.3 40.5,28.1 74.3,51.5 101.3,70.2 1.5,3 2.3,6.7 2.3,10.9 0,8.7 -4,15.6 -12,20.5 -2.6,2.6 -5.7,4 -9.1,4 -12.5,0 -31.5,-8.2 -56.8,-24.5 -25.3,-16.4 -52.7,-36.4 -82.2,-60 C 767,881.9 749,867.5 742.6,862.2 Z M 457.2,52.2 v 835.6 c 6.9,0 12.4,0.1 16.6,0.3 4.2,0.2 8.6,0.5 13.1,0.8 29.3,0 55.2,-1.5 77.6,-4.5 22.5,-3 45.8,-8.9 70,-17.4 24.2,-8.6 49.3,-19.5 75.6,-32.8 -1.1,-1.1 -8.6,-8.2 -22.6,-21.1 -13.9,-13 -27.8,-26.7 -41.6,-41.4 -13.9,-14.6 -25,-27.8 -33.4,-39.4 -8.4,-11.6 -12.6,-21.2 -12.6,-28.8 0,-6.5 1.5,-10.5 4.6,-12 5.3,-1.5 8.2,-2.3 8.6,-2.3 4.6,0 9.1,1.5 13.7,4.5 8.4,6.9 19.4,17.9 33.1,33.1 23.2,24 52.3,51.5 87.3,82.7 54,-42.6 96.4,-92.9 127,-151 30.6,-58 45.9,-119.6 45.9,-184.6 0,-13.7 -1.5,-35.4 -4.5,-65.1 -6.5,-38.4 -17.3,-74.8 -32.5,-109 -15.2,-34.3 -34.4,-65.9 -57.6,-95 -23.2,-29.1 -51.2,-55.4 -83.9,-79 C 716.5,107.9 690.4,93.6 663.4,82.7 636.4,71.8 608.5,64.1 579.8,59.3 551.1,54.6 521.7,52.2 491.6,52.2 Z"
         id="path137" />
    </g>
    <path
       style="fill:#000000;fill-opacity:1;stroke:none;stroke-width:0.27602378"
       d="m 86.892198,74.622006 h 0.01294 c 0.06038,0 0.103509,-0.0345 0.125074,-0.0906 l 0.444225,-1.0394 c 0.0043,-0.0129 0.0086,-0.0302 0.0086,-0.0474 0,-0.0561 -0.04744,-0.10351 -0.107821,-0.10351 -0.05175,0 -0.09057,0.0345 -0.107822,0.069 l -0.366599,0.91432 -0.362281,-0.9057 c -0.01725,-0.0474 -0.05607,-0.0776 -0.112134,-0.0776 -0.06469,0 -0.112135,0.0474 -0.112135,0.10782 0,0.0173 0.0043,0.0345 0.01294,0.0517 l 0.439912,1.03078 c 0.02156,0.0561 0.06469,0.0906 0.125074,0.0906 z m 0,0"
       id="path4723"
       inkscape:connector-curvature="0" />
    <path
       style="fill:#000000;fill-opacity:1;stroke:none;stroke-width:0.27602378"
       d="m 87.471745,74.760016 c 0,0.0474 0.03882,0.0819 0.08626,0.0819 0.0345,0 0.06038,-0.0173 0.07763,-0.0474 l 0.733188,-1.50519 c 0.0043,-0.009 0.0086,-0.0259 0.0086,-0.0431 0,-0.0431 -0.0345,-0.082 -0.08195,-0.082 -0.0345,0 -0.06469,0.0173 -0.07763,0.0517 l -0.737505,1.50089 c -0.0043,0.0129 -0.0086,0.0259 -0.0086,0.0431 z m 0,0"
       id="path4719"
       inkscape:connector-curvature="0" />
    <path
       style="fill:#000000;fill-opacity:1;stroke:none;stroke-width:0.27602378"
       d="m 89.133809,74.626316 c 0.388159,0 0.65987,-0.29758 0.65987,-0.65124 0,-0.35366 -0.267398,-0.64693 -0.655557,-0.64693 -0.383846,0 -0.655556,0.29327 -0.655556,0.64693 v 0.004 c 0,0.35365 0.267398,0.64693 0.651243,0.64693 z m 0.0043,-0.2027 c -0.250147,0 -0.426975,-0.20271 -0.426975,-0.44854 0,-0.24584 0.176828,-0.44423 0.422663,-0.44423 0.250145,0 0.426974,0.20271 0.426974,0.44423 v 0.004 c 0,0.24583 -0.172516,0.44422 -0.422662,0.44422 z m 0,0"
       id="path4715"
       inkscape:connector-curvature="0" />
    <path
       style="fill:#000000;fill-opacity:1;stroke:none;stroke-width:0.27602378"
       d="m 90.694881,74.626316 c 0.202705,0 0.336404,-0.0647 0.452852,-0.1682 0.02156,-0.0172 0.03882,-0.0474 0.03882,-0.0776 0,-0.0561 -0.05175,-0.10351 -0.107822,-0.10351 -0.02588,0 -0.04744,0.009 -0.06469,0.0259 -0.09057,0.0776 -0.18114,0.12076 -0.314839,0.12076 -0.237208,0 -0.414036,-0.2027 -0.414036,-0.44854 0,-0.24583 0.176828,-0.44422 0.414036,-0.44422 0.12076,0 0.215643,0.0431 0.301901,0.11213 0.01294,0.0129 0.0345,0.0216 0.06469,0.0216 0.06038,0 0.112135,-0.0474 0.112135,-0.10782 0,-0.0388 -0.02156,-0.069 -0.04313,-0.0863 -0.112135,-0.0863 -0.237209,-0.14233 -0.431288,-0.14233 -0.379532,0 -0.646931,0.29328 -0.646931,0.64693 v 0.004 c 0,0.36228 0.271711,0.64693 0.638305,0.64693 z m 0,0"
       id="path4711"
       inkscape:connector-curvature="0" />
    <path
       style="fill:#000000;fill-opacity:1;stroke:none;stroke-width:0.27602378"
       d="m 91.808969,74.505556 c 0,0.0604 0.05175,0.10782 0.112135,0.10782 0.06038,0 0.112134,-0.0474 0.112134,-0.10782 v -0.95314 h 0.306214 c 0.05607,0 0.0992,-0.0474 0.0992,-0.0992 0,-0.0561 -0.04313,-0.10351 -0.0992,-0.10351 h -0.836697 c -0.05607,0 -0.0992,0.0474 -0.0992,0.10351 0,0.0517 0.04313,0.0992 0.0992,0.0992 h 0.306214 z m 0,0"
       id="path4707"
       inkscape:connector-curvature="0" />
    <path
       style="fill:#000000;fill-opacity:1;stroke:none;stroke-width:0.27602378"
       d="m 114.91886,74.634331 c 0.38817,0 0.65987,-0.29759 0.65987,-0.65124 0,-0.35366 -0.26739,-0.64693 -0.65556,-0.64693 -0.38383,0 -0.65556,0.29327 -0.65556,0.64693 v 0.004 c 0,0.35366 0.26742,0.64693 0.65125,0.64693 z m 0.004,-0.2027 c -0.25014,0 -0.42699,-0.20271 -0.42699,-0.44854 0,-0.24584 0.17685,-0.44423 0.42268,-0.44423 0.25013,0 0.42698,0.20271 0.42698,0.44423 v 0.004 c 0,0.24584 -0.17253,0.44423 -0.42267,0.44423 z m 0,0"
       id="path7387"
       inkscape:connector-curvature="0" />
    <path
       style="fill:#000000;fill-opacity:1;stroke:none;stroke-width:0.27602378"
       d="m 116.42027,74.634331 c 0.32776,0 0.53911,-0.18976 0.53911,-0.56498 v -0.61243 c 0,-0.0604 -0.0474,-0.10782 -0.10782,-0.10782 -0.0647,0 -0.11215,0.0474 -0.11215,0.10782 v 0.62105 c 0,0.2329 -0.12076,0.34934 -0.31483,0.34934 -0.19839,0 -0.31914,-0.12507 -0.31914,-0.35796 v -0.61243 c 0,-0.0604 -0.0475,-0.10782 -0.10785,-0.10782 -0.0647,0 -0.11213,0.0474 -0.11213,0.10782 v 0.62105 c 0,0.3666 0.20701,0.55636 0.53481,0.55636 z m 0,0"
       id="path7383"
       inkscape:connector-curvature="0" />
    <path
       style="fill:#000000;fill-opacity:1;stroke:none;stroke-width:0.27602378"
       d="m 117.62274,74.513571 c 0,0.0604 0.0517,0.10782 0.11214,0.10782 0.0604,0 0.11213,-0.0474 0.11213,-0.10782 v -0.95314 h 0.3062 c 0.0561,0 0.0992,-0.0474 0.0992,-0.0992 0,-0.0561 -0.0431,-0.10351 -0.0992,-0.10351 h -0.83669 c -0.0561,0 -0.0992,0.0474 -0.0992,0.10351 0,0.0518 0.0431,0.0992 0.0992,0.0992 h 0.30622 z m 0,0"
       id="path7379"
       inkscape:connector-curvature="0" />
    <path
       inkscape:connector-curvature="0"
       id="path35949-3"
       d="M 90.083936,98.356196 H 116.26267"
       style="fill:none;stroke:#000000;stroke-width:0.1572617;stroke-linecap:round;stroke-linejoin:round;stroke-miterlimit:10;stroke-opacity:1"
       inkscape:export-filename="/home/vortico/pics/tmp/LFOs.png"
       inkscape:export-xdpi="150.22649"
       inkscape:export-ydpi="150.22649" />
    <path
       inkscape:connector-curvature="0"
       id="path36429-6"
       d="m 119.93176,95.138774 c 0,-0.293897 -0.35256,-0.534767 -0.78277,-0.534767 H 113.139 c -0.43021,0 -0.78279,0.24087 -0.78279,0.534767 v 6.506466 c 0,0.29391 0.35258,0.53478 0.78279,0.53478 h 6.00999 c 0.43021,0 0.78277,-0.24087 0.78277,-0.53478 z m 0,0"
       style="fill:#000000;fill-opacity:1;fill-rule:nonzero;stroke:none;stroke-width:0.22814506"
       inkscape:export-filename="/home/vortico/pics/tmp/LFOs.png"
       inkscape:export-xdpi="150.22649"
       inkscape:export-ydpi="150.22649" />
    <path
       inkscape:connector-curvature="0"
       id="path35949-7"
       d="M 90.083936,116.91495 H 116.26267"
       style="fill:none;stroke:#000000;stroke-width:0.1572617;stroke-linecap:round;stroke-linejoin:round;stroke-miterlimit:10;stroke-opacity:1"
       inkscape:export-filename="/home/vortico/pics/tmp/LFOs.png"
       inkscape:export-xdpi="150.22649"
       inkscape:export-ydpi="150.22649" />
    <path
       inkscape:connector-curvature="0"
       id="path36429-5"
       d="m 119.93176,113.69751 c 0,-0.2939 -0.35256,-0.53477 -0.78277,-0.53477 H 113.139 c -0.43021,0 -0.78279,0.24087 -0.78279,0.53477 v 6.50645 c 0,0.29391 0.35258,0.53478 0.78279,0.53478 h 6.00999 c 0.43021,0 0.78277,-0.24087 0.78277,-0.53478 z m 0,0"
       style="fill:#000000;fill-opacity:1;fill-rule:nonzero;stroke:none;stroke-width:0.22814506"
       inkscape:export-filename="/home/vortico/pics/tmp/LFOs.png"
       inkscape:export-xdpi="150.22649"
       inkscape:export-ydpi="150.22649" />
    <path
       inkscape:connector-curvature="0"
       id="path35949-35"
       d="M 90.083936,135.45485 H 116.26267"
       style="fill:none;stroke:#000000;stroke-width:0.1572617;stroke-linecap:round;stroke-linejoin:round;stroke-miterlimit:10;stroke-opacity:1"
       inkscape:export-filename="/home/vortico/pics/tmp/LFOs.png"
       inkscape:export-xdpi="150.22649"
       inkscape:export-ydpi="150.22649" />
    <path
       inkscape:connector-curvature="0"
       id="path36429-62"
       d="m 119.93176,132.23741 c 0,-0.2939 -0.35256,-0.53477 -0.78277,-0.53477 H 113.139 c -0.43021,0 -0.78279,0.24087 -0.78279,0.53477 v 6.50645 c 0,0.29391 0.35258,0.53478 0.78279,0.53478 h 6.00999 c 0.43021,0 0.78277,-0.24087 0.78277,-0.53478 z m 0,0"
       style="fill:#000000;fill-opacity:1;fill-rule:nonzero;stroke:none;stroke-width:0.22814506"
       inkscape:export-filename="/home/vortico/pics/tmp/LFOs.png"
       inkscape:export-xdpi="150.22649"
       inkscape:export-ydpi="150.22649" />
    <path
       style="fill:#000000;fill-opacity:1;stroke:none;stroke-width:0.27602378"
       d="m 86.838939,93.090488 h 0.01294 c 0.06038,0 0.103509,-0.0345 0.125074,-0.0906 l 0.444225,-1.0394 c 0.0043,-0.0129 0.0086,-0.0302 0.0086,-0.0474 0,-0.0561 -0.04744,-0.10351 -0.107821,-0.10351 -0.05175,0 -0.09057,0.0345 -0.107822,0.069 l -0.366599,0.91432 -0.362281,-0.9057 c -0.01725,-0.0474 -0.05607,-0.0776 -0.112134,-0.0776 -0.06469,0 -0.112135,0.0474 -0.112135,0.10782 0,0.0173 0.0043,0.0345 0.01294,0.0517 l 0.439912,1.03078 c 0.02156,0.0561 0.06469,0.0906 0.125074,0.0906 z m 0,0"
       id="path4723-3"
       inkscape:connector-curvature="0" />
    <path
       style="fill:#000000;fill-opacity:1;stroke:none;stroke-width:0.27602378"
       d="m 87.418486,93.228498 c 0,0.0474 0.03882,0.0819 0.08626,0.0819 0.0345,0 0.06038,-0.0173 0.07763,-0.0474 l 0.733188,-1.50519 c 0.0043,-0.009 0.0086,-0.0259 0.0086,-0.0431 0,-0.0431 -0.0345,-0.082 -0.08195,-0.082 -0.0345,0 -0.06469,0.0173 -0.07763,0.0517 l -0.737505,1.50089 c -0.0043,0.0129 -0.0086,0.0259 -0.0086,0.0431 z m 0,0"
       id="path4719-7"
       inkscape:connector-curvature="0" />
    <path
       style="fill:#000000;fill-opacity:1;stroke:none;stroke-width:0.27602378"
       d="m 89.08055,93.094798 c 0.388159,0 0.65987,-0.29758 0.65987,-0.65124 0,-0.35366 -0.267398,-0.64693 -0.655557,-0.64693 -0.383846,0 -0.655556,0.29327 -0.655556,0.64693 v 0.004 c 0,0.35365 0.267398,0.64693 0.651243,0.64693 z m 0.0043,-0.2027 c -0.250148,0 -0.426976,-0.20271 -0.426976,-0.44854 0,-0.24584 0.176828,-0.44423 0.422664,-0.44423 0.250145,0 0.426974,0.20271 0.426974,0.44423 v 0.004 c 0,0.24583 -0.172516,0.44422 -0.422662,0.44422 z m 0,0"
       id="path4715-5"
       inkscape:connector-curvature="0" />
    <path
       style="fill:#000000;fill-opacity:1;stroke:none;stroke-width:0.27602378"
       d="m 90.641622,93.094798 c 0.202705,0 0.336404,-0.0647 0.452852,-0.1682 0.02156,-0.0172 0.03882,-0.0474 0.03882,-0.0776 0,-0.0561 -0.05175,-0.10351 -0.107822,-0.10351 -0.02588,0 -0.04744,0.009 -0.06469,0.0259 -0.09057,0.0776 -0.18114,0.12076 -0.314839,0.12076 -0.237208,0 -0.414036,-0.2027 -0.414036,-0.44854 0,-0.24583 0.176828,-0.44422 0.414036,-0.44422 0.12076,0 0.215643,0.0431 0.301901,0.11213 0.01294,0.0129 0.0345,0.0216 0.06469,0.0216 0.06038,0 0.112135,-0.0474 0.112135,-0.10782 0,-0.0388 -0.02156,-0.069 -0.04313,-0.0863 -0.112135,-0.0863 -0.237209,-0.14233 -0.431288,-0.14233 -0.379532,0 -0.646931,0.29328 -0.646931,0.64693 v 0.004 c 0,0.36228 0.271711,0.64693 0.638305,0.64693 z m 0,0"
       id="path4711-9"
       inkscape:connector-curvature="0" />
    <path
       style="fill:#000000;fill-opacity:1;stroke:none;stroke-width:0.27602378"
       d="m 91.75571,92.974038 c 0,0.0604 0.05175,0.10782 0.112135,0.10782 0.06038,0 0.112134,-0.0474 0.112134,-0.10782 v -0.95314 h 0.306214 c 0.05607,0 0.0992,-0.0474 0.0992,-0.0992 0,-0.0561 -0.04313,-0.10351 -0.0992,-0.10351 h -0.836697 c -0.05607,0 -0.0992,0.0474 -0.0992,0.10351 0,0.0517 0.04313,0.0992 0.0992,0.0992 h 0.306214 z m 0,0"
       id="path4707-2"
       inkscape:connector-curvature="0" />
    <path
       style="fill:#000000;fill-opacity:1;stroke:none;stroke-width:0.27602378"
       d="m 114.8656,93.102813 c 0.38817,0 0.65987,-0.29759 0.65987,-0.65124 0,-0.35366 -0.26739,-0.64693 -0.65556,-0.64693 -0.38383,0 -0.65555,0.29327 -0.65555,0.64693 v 0.004 c 0,0.35366 0.26741,0.64693 0.65124,0.64693 z m 0.004,-0.2027 c -0.25014,0 -0.42698,-0.20271 -0.42698,-0.44854 0,-0.24584 0.17684,-0.44423 0.42267,-0.44423 0.25014,0 0.42698,0.20271 0.42698,0.44423 v 0.004 c 0,0.24584 -0.17253,0.44423 -0.42267,0.44423 z m 0,0"
       id="path7387-2"
       inkscape:connector-curvature="0" />
    <path
       style="fill:#000000;fill-opacity:1;stroke:none;stroke-width:0.27602378"
       d="m 116.36701,93.102813 c 0.32776,0 0.53911,-0.18976 0.53911,-0.56498 v -0.61243 c 0,-0.0604 -0.0474,-0.10782 -0.10781,-0.10782 -0.0647,0 -0.11216,0.0474 -0.11216,0.10782 v 0.62105 c 0,0.2329 -0.12076,0.34934 -0.31483,0.34934 -0.19838,0 -0.31914,-0.12507 -0.31914,-0.35796 v -0.61243 c 0,-0.0604 -0.0475,-0.10782 -0.10784,-0.10782 -0.0647,0 -0.11214,0.0474 -0.11214,0.10782 v 0.62105 c 0,0.3666 0.20702,0.55636 0.53481,0.55636 z m 0,0"
       id="path7383-8"
       inkscape:connector-curvature="0" />
    <path
       style="fill:#000000;fill-opacity:1;stroke:none;stroke-width:0.27602378"
       d="m 117.56949,92.982053 c 0,0.0604 0.0517,0.10782 0.11213,0.10782 0.0604,0 0.11213,-0.0474 0.11213,-0.10782 v -0.95314 h 0.3062 c 0.0561,0 0.0992,-0.0474 0.0992,-0.0992 0,-0.0561 -0.0431,-0.10351 -0.0992,-0.10351 h -0.83669 c -0.0561,0 -0.0992,0.0474 -0.0992,0.10351 0,0.0518 0.0431,0.0992 0.0992,0.0992 h 0.30623 z m 0,0"
       id="path7379-97"
       inkscape:connector-curvature="0" />
    <path
       style="fill:#000000;fill-opacity:1;stroke:none;stroke-width:0.27602378"
       d="m 86.838939,111.66802 h 0.01294 c 0.06038,0 0.103509,-0.0345 0.125074,-0.0906 l 0.444225,-1.0394 c 0.0043,-0.0129 0.0086,-0.0302 0.0086,-0.0474 0,-0.0561 -0.04744,-0.10351 -0.107821,-0.10351 -0.05175,0 -0.09057,0.0345 -0.107822,0.069 l -0.366599,0.91432 -0.362281,-0.9057 c -0.01725,-0.0474 -0.05607,-0.0776 -0.112134,-0.0776 -0.06469,0 -0.112135,0.0474 -0.112135,0.10782 0,0.0173 0.0043,0.0345 0.01294,0.0517 l 0.439912,1.03078 c 0.02156,0.0561 0.06469,0.0906 0.125074,0.0906 z m 0,0"
       id="path4723-2"
       inkscape:connector-curvature="0" />
    <path
       style="fill:#000000;fill-opacity:1;stroke:none;stroke-width:0.27602378"
       d="m 87.418486,111.80603 c 0,0.0474 0.03882,0.0819 0.08626,0.0819 0.0345,0 0.06038,-0.0173 0.07763,-0.0474 l 0.733188,-1.50519 c 0.0043,-0.009 0.0086,-0.0259 0.0086,-0.0431 0,-0.0431 -0.0345,-0.082 -0.08195,-0.082 -0.0345,0 -0.06469,0.0173 -0.07763,0.0517 l -0.737505,1.50089 c -0.0043,0.0129 -0.0086,0.0259 -0.0086,0.0431 z m 0,0"
       id="path4719-9"
       inkscape:connector-curvature="0" />
    <path
       style="fill:#000000;fill-opacity:1;stroke:none;stroke-width:0.27602378"
       d="m 89.08055,111.67233 c 0.388159,0 0.65987,-0.29758 0.65987,-0.65124 0,-0.35366 -0.267398,-0.64693 -0.655557,-0.64693 -0.383846,0 -0.655556,0.29327 -0.655556,0.64693 v 0.004 c 0,0.35365 0.267398,0.64693 0.651243,0.64693 z m 0.0043,-0.2027 c -0.250148,0 -0.426976,-0.20271 -0.426976,-0.44854 0,-0.24584 0.176828,-0.44423 0.422664,-0.44423 0.250145,0 0.426974,0.20271 0.426974,0.44423 v 0.004 c 0,0.24583 -0.172516,0.44422 -0.422662,0.44422 z m 0,0"
       id="path4715-3"
       inkscape:connector-curvature="0" />
    <path
       style="fill:#000000;fill-opacity:1;stroke:none;stroke-width:0.27602378"
       d="m 90.641622,111.67233 c 0.202705,0 0.336404,-0.0647 0.452852,-0.1682 0.02156,-0.0172 0.03882,-0.0474 0.03882,-0.0776 0,-0.0561 -0.05175,-0.10351 -0.107822,-0.10351 -0.02588,0 -0.04744,0.009 -0.06469,0.0259 -0.09057,0.0776 -0.18114,0.12076 -0.314839,0.12076 -0.237208,0 -0.414036,-0.2027 -0.414036,-0.44854 0,-0.24583 0.176828,-0.44422 0.414036,-0.44422 0.12076,0 0.215643,0.0431 0.301901,0.11213 0.01294,0.0129 0.0345,0.0216 0.06469,0.0216 0.06038,0 0.112135,-0.0474 0.112135,-0.10782 0,-0.0388 -0.02156,-0.069 -0.04313,-0.0863 -0.112135,-0.0863 -0.237209,-0.14233 -0.431288,-0.14233 -0.379532,0 -0.646931,0.29328 -0.646931,0.64693 v 0.004 c 0,0.36228 0.271711,0.64693 0.638305,0.64693 z m 0,0"
       id="path4711-1"
       inkscape:connector-curvature="0" />
    <path
       style="fill:#000000;fill-opacity:1;stroke:none;stroke-width:0.27602378"
       d="m 91.75571,111.55157 c 0,0.0604 0.05175,0.10782 0.112135,0.10782 0.06038,0 0.112134,-0.0474 0.112134,-0.10782 v -0.95314 h 0.306214 c 0.05607,0 0.0992,-0.0474 0.0992,-0.0992 0,-0.0561 -0.04313,-0.10351 -0.0992,-0.10351 h -0.836697 c -0.05607,0 -0.0992,0.0474 -0.0992,0.10351 0,0.0517 0.04313,0.0992 0.0992,0.0992 h 0.306214 z m 0,0"
       id="path4707-9"
       inkscape:connector-curvature="0" />
    <path
       style="fill:#000000;fill-opacity:1;stroke:none;stroke-width:0.27602378"
       d="m 114.8656,111.68034 c 0.38817,0 0.65987,-0.29759 0.65987,-0.65124 0,-0.35366 -0.26739,-0.64693 -0.65556,-0.64693 -0.38383,0 -0.65555,0.29327 -0.65555,0.64693 v 0.004 c 0,0.35366 0.26741,0.64693 0.65124,0.64693 z m 0.004,-0.2027 c -0.25014,0 -0.42698,-0.20271 -0.42698,-0.44854 0,-0.24584 0.17684,-0.44423 0.42267,-0.44423 0.25014,0 0.42698,0.20271 0.42698,0.44423 v 0.004 c 0,0.24584 -0.17253,0.44423 -0.42267,0.44423 z m 0,0"
       id="path7387-4"
       inkscape:connector-curvature="0" />
    <path
       style="fill:#000000;fill-opacity:1;stroke:none;stroke-width:0.27602378"
       d="m 116.36701,111.68034 c 0.32776,0 0.53911,-0.18976 0.53911,-0.56498 v -0.61243 c 0,-0.0604 -0.0474,-0.10782 -0.10781,-0.10782 -0.0647,0 -0.11216,0.0474 -0.11216,0.10782 v 0.62105 c 0,0.2329 -0.12076,0.34934 -0.31483,0.34934 -0.19838,0 -0.31914,-0.12507 -0.31914,-0.35796 v -0.61243 c 0,-0.0604 -0.0475,-0.10782 -0.10784,-0.10782 -0.0647,0 -0.11214,0.0474 -0.11214,0.10782 v 0.62105 c 0,0.3666 0.20702,0.55636 0.53481,0.55636 z m 0,0"
       id="path7383-7"
       inkscape:connector-curvature="0" />
    <path
       style="fill:#000000;fill-opacity:1;stroke:none;stroke-width:0.27602378"
       d="m 117.56949,111.55958 c 0,0.0604 0.0517,0.10782 0.11213,0.10782 0.0604,0 0.11213,-0.0474 0.11213,-0.10782 v -0.95314 h 0.3062 c 0.0561,0 0.0992,-0.0474 0.0992,-0.0992 0,-0.0561 -0.0431,-0.10351 -0.0992,-0.10351 h -0.83669 c -0.0561,0 -0.0992,0.0474 -0.0992,0.10351 0,0.0518 0.0431,0.0992 0.0992,0.0992 h 0.30623 z m 0,0"
       id="path7379-8"
       inkscape:connector-curvature="0" />
    <path
       inkscape:connector-curvature="0"
       id="path35949-7-4"
       d="M 90.065654,135.44724 H 116.24439"
       style="fill:none;stroke:#000000;stroke-width:0.1572617;stroke-linecap:round;stroke-linejoin:round;stroke-miterlimit:10;stroke-opacity:1"
       inkscape:export-filename="/home/vortico/pics/tmp/LFOs.png"
       inkscape:export-xdpi="150.22649"
       inkscape:export-ydpi="150.22649" />
    <path
       inkscape:connector-curvature="0"
       id="path36429-5-7"
       d="m 119.91347,132.2298 c 0,-0.2939 -0.35255,-0.53477 -0.78277,-0.53477 h -6.00998 c -0.43021,0 -0.7828,0.24087 -0.7828,0.53477 v 6.50645 c 0,0.29391 0.35259,0.53478 0.7828,0.53478 h 6.00998 c 0.43022,0 0.78277,-0.24087 0.78277,-0.53478 z m 0,0"
       style="fill:#000000;fill-opacity:1;fill-rule:nonzero;stroke:none;stroke-width:0.22814506"
       inkscape:export-filename="/home/vortico/pics/tmp/LFOs.png"
       inkscape:export-xdpi="150.22649"
       inkscape:export-ydpi="150.22649" />
    <path
       style="fill:#000000;fill-opacity:1;stroke:none;stroke-width:0.27602378"
       d="m 86.820657,130.20031 h 0.01294 c 0.06038,0 0.103509,-0.0345 0.125074,-0.0906 l 0.444225,-1.0394 c 0.0043,-0.0129 0.0086,-0.0302 0.0086,-0.0474 0,-0.0561 -0.04744,-0.10351 -0.107821,-0.10351 -0.05175,0 -0.09057,0.0345 -0.107822,0.069 l -0.366599,0.91432 -0.362281,-0.9057 c -0.01725,-0.0474 -0.05607,-0.0776 -0.112134,-0.0776 -0.06469,0 -0.112135,0.0474 -0.112135,0.10782 0,0.0173 0.0043,0.0345 0.01294,0.0517 l 0.439912,1.03078 c 0.02156,0.0561 0.06469,0.0906 0.125074,0.0906 z m 0,0"
       id="path4723-2-6"
       inkscape:connector-curvature="0" />
    <path
       style="fill:#000000;fill-opacity:1;stroke:none;stroke-width:0.27602378"
       d="m 87.400204,130.33832 c 0,0.0474 0.03882,0.0819 0.08626,0.0819 0.0345,0 0.06038,-0.0173 0.07763,-0.0474 l 0.733188,-1.50519 c 0.0043,-0.009 0.0086,-0.0259 0.0086,-0.0431 0,-0.0431 -0.0345,-0.082 -0.08195,-0.082 -0.0345,0 -0.06469,0.0173 -0.07763,0.0517 l -0.737505,1.50089 c -0.0043,0.0129 -0.0086,0.0259 -0.0086,0.0431 z m 0,0"
       id="path4719-9-9"
       inkscape:connector-curvature="0" />
    <path
       style="fill:#000000;fill-opacity:1;stroke:none;stroke-width:0.27602378"
       d="m 89.062268,130.20462 c 0.388159,0 0.65987,-0.29758 0.65987,-0.65124 0,-0.35366 -0.267398,-0.64693 -0.655557,-0.64693 -0.383846,0 -0.655556,0.29327 -0.655556,0.64693 v 0.004 c 0,0.35365 0.267398,0.64693 0.651243,0.64693 z m 0.0043,-0.2027 c -0.250148,0 -0.426976,-0.20271 -0.426976,-0.44854 0,-0.24584 0.176828,-0.44423 0.422664,-0.44423 0.250145,0 0.426974,0.20271 0.426974,0.44423 v 0.004 c 0,0.24583 -0.172516,0.44422 -0.422662,0.44422 z m 0,0"
       id="path4715-3-3"
       inkscape:connector-curvature="0" />
    <path
       style="fill:#000000;fill-opacity:1;stroke:none;stroke-width:0.27602378"
       d="m 90.62334,130.20462 c 0.202705,0 0.336404,-0.0647 0.452852,-0.1682 0.02156,-0.0172 0.03882,-0.0474 0.03882,-0.0776 0,-0.0561 -0.05175,-0.10351 -0.107822,-0.10351 -0.02588,0 -0.04744,0.009 -0.06469,0.0259 -0.09057,0.0776 -0.18114,0.12076 -0.314839,0.12076 -0.237208,0 -0.414036,-0.2027 -0.414036,-0.44854 0,-0.24583 0.176828,-0.44422 0.414036,-0.44422 0.12076,0 0.215643,0.0431 0.301901,0.11213 0.01294,0.0129 0.0345,0.0216 0.06469,0.0216 0.06038,0 0.112135,-0.0474 0.112135,-0.10782 0,-0.0388 -0.02156,-0.069 -0.04313,-0.0863 -0.112135,-0.0863 -0.237209,-0.14233 -0.431288,-0.14233 -0.379532,0 -0.646931,0.29328 -0.646931,0.64693 v 0.004 c 0,0.36228 0.271711,0.64693 0.638305,0.64693 z m 0,0"
       id="path4711-1-7"
       inkscape:connector-curvature="0" />
    <path
       style="fill:#000000;fill-opacity:1;stroke:none;stroke-width:0.27602378"
       d="m 91.737428,130.08386 c 0,0.0604 0.05175,0.10782 0.112135,0.10782 0.06038,0 0.112134,-0.0474 0.112134,-0.10782 v -0.95314 h 0.306214 c 0.05607,0 0.0992,-0.0474 0.0992,-0.0992 0,-0.0561 -0.04313,-0.10351 -0.0992,-0.10351 h -0.836697 c -0.05607,0 -0.0992,0.0474 -0.0992,0.10351 0,0.0517 0.04313,0.0992 0.0992,0.0992 h 0.306214 z m 0,0"
       id="path4707-9-4"
       inkscape:connector-curvature="0" />
    <path
       style="fill:#000000;fill-opacity:1;stroke:none;stroke-width:0.27602378"
       d="m 114.84732,130.21263 c 0.38817,0 0.65987,-0.29759 0.65987,-0.65124 0,-0.35366 -0.26739,-0.64693 -0.65556,-0.64693 -0.38383,0 -0.65556,0.29327 -0.65556,0.64693 v 0.004 c 0,0.35366 0.26742,0.64693 0.65125,0.64693 z m 0.004,-0.2027 c -0.25014,0 -0.42698,-0.20271 -0.42698,-0.44854 0,-0.24584 0.17684,-0.44423 0.42267,-0.44423 0.25013,0 0.42698,0.20271 0.42698,0.44423 v 0.004 c 0,0.24584 -0.17253,0.44423 -0.42267,0.44423 z m 0,0"
       id="path7387-4-5"
       inkscape:connector-curvature="0" />
    <path
       style="fill:#000000;fill-opacity:1;stroke:none;stroke-width:0.27602378"
       d="m 116.34873,130.21263 c 0.32776,0 0.53911,-0.18976 0.53911,-0.56498 v -0.61243 c 0,-0.0604 -0.0474,-0.10782 -0.10782,-0.10782 -0.0647,0 -0.11215,0.0474 -0.11215,0.10782 v 0.62105 c 0,0.2329 -0.12076,0.34934 -0.31483,0.34934 -0.19839,0 -0.31914,-0.12507 -0.31914,-0.35796 v -0.61243 c 0,-0.0604 -0.0475,-0.10782 -0.10785,-0.10782 -0.0647,0 -0.11213,0.0474 -0.11213,0.10782 v 0.62105 c 0,0.3666 0.20701,0.55636 0.53481,0.55636 z m 0,0"
       id="path7383-7-2"
       inkscape:connector-curvature="0" />
    <path
       style="fill:#000000;fill-opacity:1;stroke:none;stroke-width:0.27602378"
       d="m 117.5512,130.09187 c 0,0.0604 0.0517,0.10782 0.11214,0.10782 0.0604,0 0.11213,-0.0474 0.11213,-0.10782 v -0.95314 h 0.3062 c 0.0561,0 0.0992,-0.0474 0.0992,-0.0992 0,-0.0561 -0.0431,-0.10351 -0.0992,-0.10351 h -0.8367 c -0.0561,0 -0.0992,0.0474 -0.0992,0.10351 0,0.0518 0.0431,0.0992 0.0992,0.0992 h 0.30623 z m 0,0"
       id="path7379-8-5"
       inkscape:connector-curvature="0" />
  </g>
</svg>
